<svg xmlns="http://www.w3.org/2000/svg" xmlns:xlink="http://www.w3.org/1999/xlink" width="548.023" height="119.732" viewBox="0 0 548.023 119.732">
  <defs>
    <linearGradient id="linear-gradient" x1="1.026" y1="0.256" x2="0.001" y2="0.699" gradientUnits="objectBoundingBox">
      <stop offset="0" stop-color="#b1c4c3"/>
      <stop offset="1" stop-color="#0068af"/>
    </linearGradient>
    <linearGradient id="linear-gradient-2" x1="0.868" y1="-0.225" x2="0.073" y2="1.448" xlink:href="#linear-gradient"/>
  </defs>
  <g id="Group_163" data-name="Group 163" transform="translate(-1037.674 -479.478)">
    <path id="Path_5" data-name="Path 5" d="M1056.957,517.364l22.6-30.46,22.6,30.46-22.6,53.095Zm5.867-24.312-21.238,12.016,9.222,5.031Zm-25.15,20.4v30.46l8.1-25.151Zm14.531,16.487-12.854,38,33.254,7.825Zm1.677,50.3,25.678,18.723,25.677-18.723-25.677,6.707Zm63.65-75.171-21.238-12.016L1108.31,510.1Zm-4.192,13.693,8.1,25.151v-30.46Zm-26.827,57.008,33.255-7.825-12.855-38Z" transform="translate(0 -1.879)" fill="url(#linear-gradient)"/>
    <path id="Path_6" data-name="Path 6" d="M1263.585,529.677h-61.263c-7.3,0-15.475-8.93-15.475-20.881,0-10.966,4.29-23.771,16.382-23.771h60.356v4.724h-60.356c-11.329,0-11.657,17.1-11.657,19.047,0,7.272,4.961,16.156,10.75,16.156h56.539V509.714h-36.008v-4.725h40.732Zm102.42-44.652h-76.739v4.724h76.739Zm0,39.928h-72.014V509.714h72.014v-4.725h-76.739v24.689h76.739Zm97.692-32.807v37.532h4.725v-50.2l-38.333,44.232-38.4-44.221v50.188h4.725V492.135l33.681,38.785Zm-20.523,103.932-42.186-47.62-42.214,46.8,3.507,3.164,38.676-42.869,38.681,43.662Zm85.625-3.359h-61.266c-5.79,0-10.75-8.884-10.75-16.156,0-1.95.328-19.048,11.658-19.048H1528.8V552.79h-60.357c-12.092,0-16.383,12.806-16.383,23.772,0,11.95,8.17,20.88,15.475,20.88H1528.8Zm-265.214-19.964h-72.013V557.515h72.013V552.79h-76.738v24.689h72.014v15.239h-72.014v4.725h76.738Zm92.6-19.964h-76.738v4.725h76.738Zm-36.007,0h-4.725v44.652h4.725Zm230.613-2.929h-4.724v47.362h4.724Zm72.65,44.819-69.223-23.634,69.057-15.915-1.062-4.605-76.147,17.55.086,5.209,75.761,25.866Z" transform="translate(-37.749 0)" fill="url(#linear-gradient-2)"/>
  </g>
</svg>
