<svg xmlns="http://www.w3.org/2000/svg" xmlns:xlink="http://www.w3.org/1999/xlink" width="305.61" height="172.753" viewBox="0 0 305.61 172.753">
  <defs>
    <linearGradient id="linear-gradient" x1="1.026" y1="0.256" x2="0.001" y2="0.699" gradientUnits="objectBoundingBox">
      <stop offset="0" stop-color="#b1c4c3"/>
      <stop offset="1" stop-color="#0068af"/>
    </linearGradient>
    <linearGradient id="linear-gradient-2" x1="0.889" y1="-0.092" x2="0.094" y2="1.58" xlink:href="#linear-gradient"/>
  </defs>
  <g id="logo_01A" transform="translate(-659.989 -374.369)">
    <path id="Path_1" data-name="Path 1" d="M917.277,395.69,933.1,374.369l15.822,21.321L933.1,432.856Zm4.108-17.018-14.866,8.411,6.455,3.521Zm-17.6,14.279v21.321l5.672-17.6Zm10.171,11.541-9,26.6,23.277,5.477Zm1.174,35.209L933.1,452.807,951.072,439.7,933.1,444.4Zm44.554-52.618-14.866-8.411,8.411,11.932Zm-2.934,9.585,5.672,17.6V392.952Zm-18.778,39.9,23.277-5.477-9-26.6Z" transform="translate(-123.416 0)" fill="url(#linear-gradient)"/>
    <path id="Path_2" data-name="Path 2" d="M772.041,580.061H729.158c-5.113,0-10.832-6.251-10.832-14.616,0-7.676,3-16.64,11.467-16.64h42.248v3.307H729.793c-7.93,0-8.16,11.967-8.16,13.332,0,5.09,3.472,11.309,7.525,11.309h39.576V566.086h-25.2v-3.307h28.512ZM843.732,548.8H790.017v3.307h53.715Zm0,27.949H793.324V566.086h50.408v-3.307H790.017v17.282h53.715Zm68.383-22.964v26.271h3.307V544.922L888.59,575.883,861.709,544.93v35.131h3.307V553.782l23.576,27.148Zm-65.7,72.75-29.529-33.333-29.55,32.756,2.456,2.215,27.073-30.008,27.075,30.563Zm59.935-2.351H863.463c-4.052,0-7.524-6.218-7.524-11.309,0-1.365.229-13.333,8.16-13.333h42.248v-3.307H864.1c-8.464,0-11.468,8.964-11.468,16.64,0,8.365,5.719,14.616,10.831,14.616h42.884ZM720.7,610.213H670.3V599.546H720.7v-3.307H666.989V613.52H717.4v10.668H666.989v3.307H720.7Zm64.821-13.974H731.81v3.307h53.716Zm-25.2,0h-3.307v31.256h3.307Zm161.424-2.05h-3.307v33.152h3.307ZM972.6,625.561l-48.455-16.543,48.339-11.141-.743-3.223-53.3,12.285.061,3.646L971.53,628.69Z" transform="translate(-7 -81.61)" fill="url(#linear-gradient-2)"/>
  </g>
</svg>
